<?xml version="1.0" standalone="no"?><!-- Generator: Gravit.io --><svg xmlns="http://www.w3.org/2000/svg" xmlns:xlink="http://www.w3.org/1999/xlink" style="isolation:isolate" viewBox="0 0 200 80" width="200" height="80"><defs><clipPath id="_clipPath_bcadtfFfyPhCzmoZPWo8Luc66oq35GNm"><rect width="200" height="80"/></clipPath></defs><g clip-path="url(#_clipPath_bcadtfFfyPhCzmoZPWo8Luc66oq35GNm)"><g id="plone_logo"><path d=" M 84.79 43.458 L 76.961 43.458 L 76.961 56.989 L 71.741 56.989 L 71.741 22.581 L 84.789 22.581 C 91.506 22.581 95.804 27.027 95.804 33.019 C 95.804 39.011 91.506 43.458 84.79 43.458 Z  M 84.499 27.268 L 76.96 27.268 L 76.96 38.721 L 84.499 38.721 C 88.123 38.721 90.587 36.643 90.587 33.019 C 90.587 29.394 88.123 27.268 84.499 27.268 Z " fill="rgb(250,250,250)"/><path d=" M 106.94 56.989 C 102.302 56.989 100.225 53.847 100.225 50.224 L 100.225 22.581 L 105.153 22.581 L 105.153 49.935 C 105.153 51.82 105.827 52.785 107.809 52.785 L 109.983 52.785 L 109.983 56.989 L 106.94 56.989 Z " fill="rgb(250,250,250)"/><path d=" M 131.646 54.378 C 130.05 56.023 127.634 57.278 124.299 57.278 C 120.966 57.278 118.596 56.02 117.002 54.378 C 114.684 51.964 114.104 48.869 114.104 44.714 C 114.104 40.606 114.684 37.512 117.002 35.096 C 118.596 33.453 120.966 32.197 124.299 32.197 C 127.634 32.197 130.05 33.455 131.646 35.096 C 133.965 37.512 134.544 40.606 134.544 44.714 C 134.547 48.87 133.965 51.963 131.646 54.378 Z  M 127.924 37.998 C 127.005 37.079 125.749 36.595 124.299 36.595 C 122.85 36.595 121.642 37.077 120.722 37.998 C 119.225 39.496 119.033 42.057 119.033 44.714 C 119.033 47.37 119.225 49.933 120.722 51.43 C 121.641 52.347 122.85 52.88 124.299 52.88 C 125.749 52.88 127.004 52.349 127.924 51.43 C 129.423 49.931 129.616 47.37 129.616 44.714 C 129.616 42.057 129.423 39.495 127.924 37.998 Z " fill="rgb(250,250,250)"/><path d=" M 154.081 56.989 L 154.081 42.057 C 154.081 38.238 151.906 36.595 149.153 36.595 C 146.4 36.595 144.079 38.285 144.079 42.057 L 144.079 56.988 L 139.151 56.988 L 139.151 32.487 L 143.981 32.487 L 143.981 34.951 C 145.674 33.114 148.04 32.197 150.504 32.197 C 153.017 32.197 155.097 33.018 156.545 34.42 C 158.43 36.256 159.009 38.575 159.009 41.33 L 159.009 56.988 L 154.081 56.989 L 154.081 56.989 Z " fill="rgb(250,250,250)"/><path d=" M 168.492 46.164 C 168.492 50.367 170.716 53.025 174.726 53.025 C 177.479 53.025 178.931 52.254 180.671 50.512 L 183.812 53.46 C 181.299 55.972 178.932 57.278 174.631 57.278 C 168.492 57.278 163.613 54.04 163.613 44.714 C 163.613 36.787 167.72 32.197 174.002 32.197 C 180.574 32.197 184.392 37.03 184.392 43.99 L 184.392 46.164 L 168.492 46.164 Z  M 178.833 39.398 C 178.061 37.562 176.323 36.304 174.002 36.304 C 171.684 36.304 169.895 37.562 169.122 39.398 C 168.64 40.51 168.542 41.235 168.494 42.733 L 179.512 42.733 C 179.461 41.235 179.318 40.509 178.833 39.398 Z " fill="rgb(250,250,250)"/><path d=" M 23.106 29.565 C 23.106 26.678 25.449 24.335 28.336 24.335 C 31.223 24.335 33.567 26.678 33.567 29.565 C 33.567 32.452 31.223 34.796 28.336 34.796 C 25.449 34.796 23.106 32.452 23.106 29.565 Z " fill="rgb(250,250,250)"/><path d=" M 44.201 40.015 C 44.201 42.906 41.862 45.245 38.969 45.245 C 36.086 45.245 33.74 42.904 33.74 40.015 C 33.74 37.125 36.087 34.786 38.969 34.786 C 41.864 34.785 44.201 37.126 44.201 40.015 Z " fill="rgb(250,250,250)"/><path d=" M 23.089 50.495 C 23.089 47.609 25.433 45.265 28.32 45.265 C 31.206 45.265 33.55 47.609 33.55 50.495 C 33.55 53.382 31.206 55.726 28.32 55.726 C 25.433 55.726 23.089 53.382 23.089 50.495 Z " fill="rgb(250,250,250)"/><g id="Group"><path d=" M 31.456 15.829 C 18.108 15.83 7.287 26.651 7.286 40 C 7.287 53.348 18.108 64.169 31.456 64.171 C 44.806 64.169 55.626 53.351 55.628 40 C 55.627 26.651 44.807 15.83 31.456 15.829 Z  M 45.061 53.604 C 41.572 57.09 36.777 59.238 31.456 59.239 C 26.136 59.238 21.341 57.087 17.852 53.604 C 14.367 50.114 12.218 45.32 12.217 40 C 12.218 34.679 14.367 29.885 17.853 26.395 C 21.343 22.909 26.137 20.761 31.458 20.76 C 36.778 20.761 41.573 22.91 45.063 26.395 C 48.549 29.886 50.697 34.68 50.698 40 C 50.696 45.32 48.547 50.114 45.061 53.604 Z " fill="rgb(250,250,250)"/></g><g id="Group"><path d=" M 190.133 27.705 C 188.713 27.705 187.562 28.858 187.562 30.281 C 187.564 31.703 188.713 32.857 190.133 32.857 C 191.558 32.857 192.714 31.703 192.714 30.281 C 192.714 28.858 191.558 27.705 190.133 27.705 Z  M 190.133 32.479 C 188.92 32.476 187.94 31.496 187.94 30.281 C 187.942 29.067 188.92 28.084 190.133 28.081 C 191.349 28.084 192.334 29.065 192.336 30.281 C 192.332 31.496 191.349 32.476 190.133 32.479 Z " fill="rgb(250,250,250)"/></g><g id="Group"><path d=" M 190.753 31.815 L 190.112 30.531 L 189.534 30.531 L 189.534 31.815 L 189.072 31.815 L 189.072 28.768 L 190.253 28.768 C 190.828 28.768 191.199 29.14 191.199 29.659 C 191.199 30.095 190.933 30.374 190.589 30.467 L 191.293 31.817 L 190.753 31.815 L 190.753 31.815 Z  M 190.217 29.184 L 189.534 29.184 L 189.534 30.138 L 190.217 30.138 C 190.528 30.138 190.737 29.963 190.737 29.664 C 190.737 29.364 190.528 29.184 190.217 29.184 Z " fill="rgb(250,250,250)"/></g></g></g></svg>